<?xml version="1.0" encoding="utf-8"?>
<!-- Generator: Adobe Illustrator 24.0.3, SVG Export Plug-In . SVG Version: 6.00 Build 0)  -->
<svg version="1.1" id="Layer_1" xmlns="http://www.w3.org/2000/svg" xmlns:xlink="http://www.w3.org/1999/xlink" x="0px" y="0px"
	 viewBox="0 0 51 48" style="enable-background:new 0 0 51 48;" xml:space="preserve">
<style type="text/css">
	.st0{fill:#E9D481;}
	.st1{fill:#E9D481;}
	.st2{fill:#E9D481;}
</style>
<g>
	<path class="st0" d="M42.148,40.847c-3.21,2.617-6.956,3.923-11.237,3.923c-3.73,0-6.895-0.969-9.493-2.908
		c-2.6-1.938-4.572-4.553-5.917-7.846c-1.24-3.033-1.881-6.381-1.978-10.016c0.046-1.726,0.202-3.394,0.506-4.985h22.405V17.17
		h-5.209c-5.744,0-9.276-6.323-6.292-11.262c0.005-0.009,0.011-0.018,0.016-0.026c0.927-1.51,2.592-2.403,4.348-2.573
		c0.524-0.051,1.062-0.078,1.615-0.078c4.28,0,8.026,1.306,11.237,3.923c1.506,1.227,2.834,2.753,3.997,4.556h1.888
		c-1.51-2.675-3.356-4.943-5.564-6.772C38.494,1.647,33.296,0,26.876,0c-0.282,0-0.826,0.026-0.826,0.016
		c-4.648,0-8.943,0.923-12.887,2.8c-3.886,1.851-7.024,4.561-9.426,8.113c-0.035,0.052-0.079,0.096-0.114,0.148
		C1.207,14.707,0,19.016,0,24v0c0,0,0,0,0,0c0,4.984,1.207,9.293,3.623,12.923c0.035,0.053,0.079,0.096,0.114,0.148
		c2.402,3.552,5.539,6.262,9.426,8.113c3.944,1.876,8.239,2.804,12.887,2.804C26.092,47.985,26.594,48,26.876,48
		c6.42,0,11.618-1.647,15.594-4.938c3.974-3.291,6.817-7.953,8.53-13.984h-1.559C47.79,34.309,45.359,38.231,42.148,40.847z
		 M15.294,10.583c0.703-1.159,1.659-1.739,2.87-1.739c1.074,0,1.874,0.432,2.401,1.297c0.527,0.865,0.791,2.063,0.791,3.596h-7.012
		C14.495,12.439,14.809,11.384,15.294,10.583z"/>
</g>
</svg>
