<?xml version="1.0" encoding="utf-8"?>
<!-- Generator: Adobe Illustrator 24.0.3, SVG Export Plug-In . SVG Version: 6.00 Build 0)  -->
<svg version="1.1" id="Layer_1" xmlns="http://www.w3.org/2000/svg" xmlns:xlink="http://www.w3.org/1999/xlink" x="0px" y="0px"
	 viewBox="0 0 408 48" style="enable-background:new 0 0 408 48;" xml:space="preserve">
<style type="text/css">
	.st0{fill:#E9D481;}
	.st1{fill:#E9D481;}
	.st2{fill:#E9D481;}
</style>
<g>
	<path class="st0" d="M42.44,40.847c-3.232,2.617-7.005,3.923-11.314,3.923c-3.756,0-6.942-0.969-9.559-2.908
		c-2.618-1.938-4.603-4.553-5.957-7.846c-1.248-3.033-1.894-6.381-1.992-10.016c0.046-1.726,0.203-3.394,0.509-4.985h22.56V17.17
		h-5.245c-5.783,0-9.341-6.323-6.335-11.262c0.005-0.009,0.011-0.018,0.016-0.026c0.934-1.51,2.61-2.403,4.378-2.573
		c0.528-0.051,1.069-0.078,1.626-0.078c4.31,0,8.082,1.306,11.314,3.923c1.517,1.227,2.854,2.753,4.025,4.556h1.902
		c-1.521-2.675-3.379-4.943-5.603-6.772C38.76,1.647,33.527,0,27.062,0c-0.284,0-0.831,0.026-0.831,0.016
		c-4.68,0-9.005,0.923-12.977,2.8c-3.913,1.851-7.072,4.561-9.491,8.113c-0.036,0.052-0.08,0.096-0.115,0.148
		C1.216,14.707,0,19.016,0,24v0c0,0,0,0,0,0c0,4.984,1.216,9.293,3.648,12.923c0.035,0.053,0.079,0.096,0.115,0.148
		c2.419,3.552,5.578,6.262,9.491,8.113c3.971,1.876,8.296,2.804,12.977,2.804C26.272,47.985,26.778,48,27.062,48
		c6.465,0,11.698-1.647,15.702-4.938c4.001-3.291,6.865-7.953,8.589-13.984h-1.57C48.12,34.309,45.672,38.231,42.44,40.847z
		 M15.4,10.583c0.708-1.159,1.671-1.739,2.89-1.739c1.081,0,1.887,0.432,2.418,1.297c0.531,0.865,0.796,2.063,0.796,3.596h-7.06
		C14.595,12.439,14.911,11.384,15.4,10.583z"/>
	<path class="st0" d="M99.158,26.223V22.8c0-3.407-0.712-5.837-2.135-7.289c-1.423-1.451-3.44-2.178-6.048-2.178
		c-2.402,0-4.351,0.482-5.848,1.444c-1.439,0.926-2.718,2.301-3.843,4.116c0.086-1.221,0.263-2.776,0.53-4.671H69.807
		c0.296,2.104,0.481,3.793,0.556,5.067c0.073,1.274,0.111,2.993,0.111,5.156v1.778c0,2.163-0.037,3.882-0.111,5.155
		c-0.075,1.274-0.26,2.963-0.556,5.067h12.007c-0.297-2.103-0.482-3.792-0.556-5.067c-0.074-1.274-0.111-2.992-0.111-5.155v-1.778
		c0-1.257,0.013-2.36,0.038-3.317c0.906-1.769,1.805-3.065,2.697-3.884C84.786,16.416,85.698,16,86.617,16
		c0.652,0,1.126,0.237,1.423,0.711c0.296,0.474,0.445,1.155,0.445,2.044v7.467c0,2.163-0.038,3.882-0.111,5.155
		c-0.074,1.274-0.26,2.963-0.556,5.067h12.007c-0.297-2.103-0.482-3.792-0.556-5.067C99.194,30.104,99.158,28.386,99.158,26.223z"/>
	<path class="st0" d="M127.685,14.622c-2.506-0.859-5.344-1.289-8.516-1.289c-3.173,0-6.011,0.43-8.516,1.289
		c-2.506,0.86-4.492,2.185-5.959,3.978c-1.468,1.793-2.201,4.038-2.201,6.733c0,2.697,0.734,4.941,2.201,6.733
		c1.468,1.793,3.453,3.119,5.959,3.978c2.505,0.859,5.343,1.289,8.516,1.289c3.172,0,6.01-0.43,8.516-1.289
		c2.505-0.859,4.491-2.185,5.959-3.978c1.468-1.792,2.201-4.037,2.201-6.733c0-2.696-0.734-4.94-2.201-6.733
		C132.176,16.808,130.19,15.482,127.685,14.622z M123.705,31.556c-0.386,1.571-0.949,2.704-1.69,3.4
		c-0.741,0.696-1.69,1.044-2.846,1.044c-1.156,0-2.105-0.348-2.846-1.044c-0.741-0.696-1.305-1.829-1.69-3.4
		c-0.386-1.57-0.578-3.644-0.578-6.222s0.193-4.652,0.578-6.222c0.385-1.57,0.949-2.704,1.69-3.4
		c0.741-0.696,1.69-1.044,2.846-1.044c1.156,0,2.105,0.348,2.846,1.044c0.741,0.696,1.304,1.83,1.69,3.4
		c0.385,1.571,0.578,3.644,0.578,6.222S124.09,29.985,123.705,31.556z"/>
	<path class="st0" d="M166.262,26.223v-5.156c0-2.844-1.045-4.844-3.135-6c-2.09-1.156-4.988-1.734-8.694-1.734
		c-2.965,0-5.797,0.378-8.494,1.133c-2.698,0.755-4.952,1.696-6.76,2.822c0.326,1.511,1.008,2.645,2.046,3.4
		c1.038,0.755,2.171,1.022,3.402,0.8c1.23-0.222,2.246-0.911,3.046-2.067l0.934-1.467c0.623-1.096,1.223-1.918,1.801-2.467
		c0.578-0.548,1.401-0.822,2.468-0.822c0.918,0,1.601,0.252,2.046,0.755c0.445,0.504,0.667,1.289,0.667,2.356
		c0,0.978-0.141,1.778-0.422,2.4c-0.282,0.623-0.778,1.134-1.49,1.533c-0.711,0.4-1.72,0.734-3.024,1
		c-0.03,0.03-0.052,0.044-0.067,0.044c-0.015,0-0.037,0-0.067,0l-0.889,0.178c-2.016,0.385-3.824,0.83-5.425,1.333
		c-1.601,0.504-3.024,1.319-4.269,2.444c-1.246,1.126-1.868,2.608-1.868,4.445c0,2.222,0.852,3.808,2.557,4.756
		c1.705,0.948,3.698,1.422,5.981,1.422c2.341,0,4.247-0.356,5.714-1.067c1.467-0.711,2.541-1.748,3.224-3.111
		c0.04-0.08,0.075-0.165,0.113-0.248c0.006,0.146,0.013,0.281,0.021,0.403c0.059,0.993,0.251,2.037,0.578,3.133h10.673
		c-0.297-2.103-0.482-3.792-0.556-5.067C166.299,30.104,166.262,28.386,166.262,26.223z M155.59,28.578
		c0,0.919-0.141,1.778-0.422,2.578c-0.282,0.8-0.682,1.438-1.201,1.911c-0.519,0.474-1.134,0.711-1.845,0.711
		c-0.801,0-1.416-0.356-1.846-1.067c-0.43-0.711-0.645-1.851-0.645-3.422c0-1.333,0.259-2.459,0.778-3.378
		c0.518-0.918,1.341-1.674,2.468-2.267l0.533-0.267c1.008-0.533,1.712-0.978,2.112-1.333c0.024-0.021,0.044-0.051,0.067-0.074V28
		C155.59,28.2,155.59,28.387,155.59,28.578L155.59,28.578z"/>
	<path class="st0" d="M198.214,14.355c-1.912-0.681-3.921-1.022-6.026-1.022c-2.579,0-4.64,0.489-6.181,1.467
		c-1.529,0.969-2.603,2.245-3.229,3.826c0.069-1.954,0.197-3.422,0.382-4.403h-11.785c0.296,2.104,0.481,3.793,0.556,5.067
		c0.073,1.274,0.111,2.993,0.111,5.156v12.445c0,2.162-0.037,3.881-0.111,5.156c-0.075,1.274-0.26,2.963-0.556,5.067h12.007
		c-0.297-2.104-0.482-3.793-0.556-5.067c-0.074-1.274-0.111-2.993-0.111-5.156v-3.956c1.364,1.541,2.839,2.66,4.425,3.356
		c1.586,0.696,3.476,1.044,5.67,1.044c1.897,0,3.765-0.341,5.604-1.022c1.838-0.681,3.402-1.911,4.691-3.689
		c1.29-1.778,1.935-4.207,1.935-7.289c0-3.081-0.66-5.511-1.979-7.289C201.741,16.267,200.126,15.037,198.214,14.355z
		 M192.277,32.867c-0.8,1.497-1.868,2.244-3.202,2.244c-1.127,0-2.231-0.378-3.313-1.133c-1.083-0.756-2.098-1.785-3.046-3.089
		v-6.711c0-1.955,0.26-3.548,0.779-4.778c0.518-1.229,1.185-2.103,2.001-2.622C186.31,16.26,187.192,16,188.141,16
		c1.838,0,3.186,0.86,4.046,2.578c0.86,1.719,1.29,3.971,1.29,6.756C193.477,28.86,193.077,31.371,192.277,32.867z"/>
	<path class="st0" d="M224.295,32.978c-0.652,1.274-1.409,1.911-2.268,1.911c-0.771,0-1.29-0.318-1.557-0.955
		c-0.267-0.637-0.4-1.696-0.4-3.178v-15.2h6.582v-1.333h-12.465c0.2-0.08,0.403-0.158,0.591-0.245
		c2.283-1.052,3.883-2.407,4.803-4.067c0.918-1.659,1.378-3.511,1.378-5.555h-8.894v0.933c0,2.015-0.133,3.637-0.4,4.867
		c-0.267,1.23-0.875,2.215-1.823,2.956c-0.949,0.741-2.402,1.111-4.358,1.111h-0.889v1.333h4.803v13.467
		c0,2.727,0.623,4.83,1.868,6.311c1.245,1.481,3.439,2.222,6.582,2.222c1.808,0,3.305-0.304,4.491-0.911
		c1.186-0.607,2.164-1.652,2.935-3.133c0.771-1.481,1.334-3.526,1.69-6.133h-1.111C225.466,29.838,224.947,31.704,224.295,32.978z"
		/>
	<path class="st0" d="M254.313,33.067c-1.72,1.067-3.543,1.6-5.47,1.6c-1.75,0-3.232-0.437-4.447-1.311
		c-1.216-0.874-2.128-2.082-2.735-3.622c-0.608-1.54-0.912-3.304-0.912-5.289c0-0.273,0.003-0.539,0.007-0.8h17.781
		c-0.06-1.926-0.645-3.673-1.757-5.244c-1.112-1.57-2.706-2.807-4.78-3.711c-2.076-0.903-4.492-1.356-7.249-1.356
		c-2.668,0-5.188,0.444-7.56,1.333c-2.372,0.889-4.299,2.237-5.781,4.044c-1.483,1.808-2.223,4.016-2.223,6.622
		c0,2.608,0.741,4.815,2.223,6.622c1.482,1.808,3.431,3.156,5.848,4.045c2.416,0.889,5.018,1.333,7.805,1.333
		c3.825,0,6.907-0.83,9.25-2.489c2.342-1.659,4.047-4.089,5.114-7.289h-1.112C257.366,30.164,256.032,32,254.313,33.067z
		 M241.728,16.978c0.652-1.541,1.586-2.311,2.802-2.311c1.067,0,1.815,0.615,2.246,1.844c0.43,1.23,0.645,3.163,0.645,5.8h-6.622
		C240.91,19.958,241.219,18.179,241.728,16.978z"/>
	<path class="st0" d="M303.363,14.355c-1.839-0.681-3.706-1.022-5.603-1.022c-2.194,0-4.084,0.349-5.67,1.044
		c-1.586,0.696-3.061,1.815-4.425,3.356v-6.622c0-2.163,0.037-3.881,0.111-5.156c0.073-1.273,0.259-2.962,0.556-5.067h-12.007
		c0.296,2.104,0.482,3.793,0.556,5.067c0.074,1.275,0.111,2.993,0.111,5.156v25.333h11.117c-0.208-1.096-0.333-2.141-0.378-3.133
		c-0.016-0.353-0.029-0.808-0.039-1.358c0.006,0.015,0.011,0.031,0.017,0.047c0.623,1.6,1.704,2.889,3.247,3.867
		c1.541,0.978,3.602,1.467,6.181,1.467c2.105,0,4.114-0.341,6.026-1.022c1.912-0.681,3.528-1.911,4.847-3.689
		c1.319-1.778,1.979-4.207,1.979-7.289c0-3.081-0.645-5.511-1.935-7.289C306.765,16.267,305.2,15.037,303.363,14.355z
		 M297.137,32.089c-0.86,1.719-2.209,2.578-4.047,2.578c-0.949,0-1.831-0.259-2.646-0.778c-0.816-0.518-1.483-1.392-2.001-2.622
		c-0.519-1.229-0.779-2.823-0.779-4.778v-6.711c0.949-1.303,1.964-2.333,3.046-3.089c1.082-0.755,2.186-1.134,3.313-1.134
		c1.334,0,2.402,0.749,3.202,2.245c0.8,1.496,1.201,4.007,1.201,7.533C298.426,28.119,297.996,30.371,297.137,32.089z"/>
	<path class="st0" d="M331.222,19.289c0.074,1.274,0.111,2.993,0.111,5.156v1.778c0,1.257-0.013,2.36-0.038,3.317
		c-0.907,1.769-1.805,3.065-2.697,3.883c-0.905,0.83-1.816,1.244-2.735,1.244c-0.653,0-1.127-0.237-1.423-0.711
		c-0.297-0.474-0.445-1.156-0.445-2.044V14.222h-11.34c0.296,2.104,0.481,3.793,0.556,5.067c0.074,1.274,0.111,2.993,0.111,5.156
		v3.422c0,3.407,0.712,5.837,2.135,7.289c1.423,1.451,3.439,2.178,6.048,2.178c2.402,0,4.351-0.482,5.848-1.444
		c1.439-0.925,2.719-2.3,3.843-4.115c-0.087,1.222-0.263,2.777-0.529,4.671h11.34V14.222h-11.34
		C330.962,16.326,331.148,18.015,331.222,19.289z"/>
	<path class="st0" d="M375.804,26.223V22.8c0-3.407-0.712-5.837-2.135-7.289c-1.423-1.451-3.44-2.178-6.048-2.178
		c-2.402,0-4.351,0.482-5.848,1.444c-1.439,0.926-2.718,2.301-3.843,4.116c0.086-1.221,0.263-2.776,0.53-4.671h-12.007
		c0.296,2.104,0.482,3.793,0.556,5.067c0.074,1.274,0.111,2.993,0.111,5.156v1.778c0,2.163-0.038,3.882-0.111,5.155
		c-0.075,1.274-0.26,2.963-0.556,5.067h12.007c-0.297-2.103-0.482-3.792-0.556-5.067c-0.074-1.274-0.111-2.992-0.111-5.155v-1.778
		c0-1.257,0.013-2.36,0.038-3.317c0.906-1.769,1.805-3.065,2.697-3.884c0.904-0.829,1.816-1.244,2.735-1.244
		c0.652,0,1.126,0.237,1.423,0.711c0.296,0.474,0.445,1.155,0.445,2.044v7.467c0,2.163-0.038,3.882-0.111,5.155
		c-0.074,1.274-0.26,2.963-0.556,5.067h12.007c-0.297-2.103-0.482-3.792-0.556-5.067C375.84,30.104,375.804,28.386,375.804,26.223z"
		/>
	<path class="st0" d="M388.055,8.8c1.408,1.096,3.55,1.644,6.426,1.644c2.875,0,5.018-0.548,6.426-1.644
		c1.408-1.096,2.157-2.918,2.246-5.467h-6.226c0.059,2.044-0.082,3.519-0.422,4.422c-0.341,0.904-1.016,1.355-2.024,1.355
		c-1.008,0-1.683-0.451-2.023-1.355c-0.341-0.903-0.482-2.378-0.422-4.422h-6.226C385.898,5.882,386.647,7.704,388.055,8.8z"/>
	<path class="st0" d="M407.444,31.378c-0.075-1.274-0.111-2.992-0.111-5.155v-5.156c0-2.844-1.045-4.844-3.135-6
		c-2.09-1.156-4.988-1.734-8.694-1.734c-2.965,0-5.797,0.378-8.494,1.133c-2.698,0.755-4.952,1.696-6.76,2.822
		c0.326,1.511,1.008,2.645,2.046,3.4c1.038,0.755,2.171,1.022,3.402,0.8c1.23-0.222,2.246-0.911,3.046-2.067l0.934-1.467
		c0.623-1.096,1.223-1.918,1.801-2.467c0.578-0.548,1.401-0.822,2.468-0.822c0.918,0,1.601,0.252,2.046,0.755
		c0.445,0.504,0.667,1.289,0.667,2.356c0,0.978-0.141,1.778-0.422,2.4c-0.282,0.623-0.778,1.134-1.49,1.533
		c-0.711,0.4-1.72,0.734-3.024,1c-0.03,0.03-0.052,0.044-0.067,0.044c-0.015,0-0.038,0-0.067,0l-0.889,0.178
		c-2.016,0.385-3.824,0.83-5.425,1.333c-1.601,0.504-3.024,1.319-4.269,2.444c-1.246,1.126-1.868,2.608-1.868,4.445
		c0,2.222,0.852,3.808,2.557,4.756c1.705,0.948,3.698,1.422,5.981,1.422c2.341,0,4.247-0.356,5.714-1.067
		c1.468-0.711,2.542-1.748,3.224-3.111c0.04-0.08,0.075-0.165,0.113-0.248c0.006,0.146,0.013,0.281,0.021,0.403
		c0.059,0.993,0.251,2.037,0.578,3.133H408C407.703,34.341,407.518,32.652,407.444,31.378z M396.66,28.578
		c0,0.919-0.141,1.778-0.422,2.578c-0.282,0.8-0.682,1.438-1.201,1.911c-0.519,0.474-1.134,0.711-1.845,0.711
		c-0.801,0-1.416-0.356-1.846-1.067c-0.43-0.711-0.645-1.851-0.645-3.422c0-1.333,0.259-2.459,0.779-3.378
		c0.518-0.918,1.341-1.674,2.468-2.267l0.534-0.267c1.008-0.533,1.712-0.978,2.112-1.333c0.024-0.021,0.044-0.051,0.067-0.074V28
		C396.66,28.2,396.661,28.387,396.66,28.578L396.66,28.578z"/>
</g>
</svg>
